<?xml version="1.0" encoding="UTF-8"?>
<svg width="24" height="24" viewBox="0 0 24 24" fill="none" xmlns="http://www.w3.org/2000/svg" aria-hidden="true">
  <path d="M12 2C17.523 2 22 6.477 22 12C22 17.523 17.523 22 12 22C6.477 22 2 17.523 2 12C2 6.477 6.477 2 12 2Z" fill="#FF3E00"/>
  <path d="M12 4C16.418 4 20 7.582 20 12C20 16.418 16.418 20 12 20C7.582 20 4 16.418 4 12C4 7.582 7.582 4 12 4Z" fill="#FFFFFF"/>
  <path d="M12 6C15.314 6 18 8.686 18 12C18 15.314 15.314 18 12 18C8.686 18 6 15.314 6 12C6 8.686 8.686 6 12 6Z" fill="#FF3E00"/>
</svg>
